<?xml version="1.0" encoding="UTF-8" standalone="no"?>
<!-- Generator: Adobe Illustrator 15.0.2, SVG Export Plug-In . SVG Version: 6.00 Build 0)  -->

<svg
   xmlns:osb="http://www.openswatchbook.org/uri/2009/osb"
   xmlns:dc="http://purl.org/dc/elements/1.1/"
   xmlns:cc="http://creativecommons.org/ns#"
   xmlns:rdf="http://www.w3.org/1999/02/22-rdf-syntax-ns#"
   xmlns:svg="http://www.w3.org/2000/svg"
   xmlns="http://www.w3.org/2000/svg"
   xmlns:sodipodi="http://sodipodi.sourceforge.net/DTD/sodipodi-0.dtd"
   xmlns:inkscape="http://www.inkscape.org/namespaces/inkscape"
   version="1.1"
   id="Layer_1"
   x="0px"
   y="0px"
   width="320"
   height="407.10855"
   viewBox="0 0 319.99999 407.10855"
   enable-background="new 0 0 195 241.25"
   xml:space="preserve"
   inkscape:version="0.91 r"
   sodipodi:docname="error404.svg"
   inkscape:export-filename="C:\Users\vanner\Público\Synced\development\z\open-innovation-lab\error\error404.png"
   inkscape:export-xdpi="88"
   inkscape:export-ydpi="88"><metadata
     id="metadata17"><rdf:RDF><cc:Work
         rdf:about=""><dc:format>image/svg+xml</dc:format><dc:type
           rdf:resource="http://purl.org/dc/dcmitype/StillImage" /><dc:title></dc:title></cc:Work></rdf:RDF></metadata><defs
     id="defs15"><linearGradient
       id="linearGradient4154"
       osb:paint="solid"><stop
         style="stop-color:#000000;stop-opacity:1;"
         offset="0"
         id="stop4156" /></linearGradient></defs><sodipodi:namedview
     pagecolor="#ffffff"
     bordercolor="#666666"
     borderopacity="1"
     objecttolerance="10"
     gridtolerance="10"
     guidetolerance="10"
     inkscape:pageopacity="0"
     inkscape:pageshadow="2"
     inkscape:window-width="1600"
     inkscape:window-height="876"
     id="namedview13"
     showgrid="false"
     fit-margin-top="0"
     fit-margin-left="0"
     fit-margin-right="0"
     fit-margin-bottom="0"
     inkscape:zoom="1.7084618"
     inkscape:cx="170"
     inkscape:cy="380.16654"
     inkscape:window-x="0"
     inkscape:window-y="24"
     inkscape:window-maximized="1"
     inkscape:current-layer="layer2" /><g
     id="g4171"
     transform="matrix(1.8579852,0,0,1.8579852,5.6537421,-27.49854)"><rect
       y="-18.50312"
       x="-1.4146053"
       height="15.077201"
       width="18.577267"
       id="rect4163"
       style="opacity:1;fill:#13f2b3;fill-opacity:1;fill-rule:nonzero;stroke:none;stroke-width:1.5;stroke-linecap:round;stroke-linejoin:round;stroke-miterlimit:4;stroke-dasharray:none;stroke-opacity:1" /><rect
       style="opacity:1;fill:#11d9a0;fill-opacity:1;fill-rule:nonzero;stroke:none;stroke-width:1.5;stroke-linecap:round;stroke-linejoin:round;stroke-miterlimit:4;stroke-dasharray:none;stroke-opacity:1"
       id="rect4165"
       width="18.577267"
       height="15.077201"
       x="18.508839"
       y="-18.50312" /><rect
       y="-18.50312"
       x="38.432293"
       height="15.077201"
       width="18.577267"
       id="rect4167"
       style="opacity:1;fill:#12a68b;fill-opacity:1;fill-rule:nonzero;stroke:none;stroke-width:1.5;stroke-linecap:round;stroke-linejoin:round;stroke-miterlimit:4;stroke-dasharray:none;stroke-opacity:1" /><rect
       style="opacity:1;fill:#025e73;fill-opacity:1;fill-rule:nonzero;stroke:none;stroke-width:1.5;stroke-linecap:round;stroke-linejoin:round;stroke-miterlimit:4;stroke-dasharray:none;stroke-opacity:1"
       id="rect4169"
       width="18.577267"
       height="15.077201"
       x="57.997864"
       y="-18.50312" /><rect
       y="-18.50312"
       x="77.563446"
       height="15.077201"
       width="18.577267"
       id="rect4171"
       style="opacity:1;fill:#024059;fill-opacity:1;fill-rule:nonzero;stroke:none;stroke-width:1.5;stroke-linecap:round;stroke-linejoin:round;stroke-miterlimit:4;stroke-dasharray:none;stroke-opacity:1" /></g><g
     inkscape:groupmode="layer"
     id="layer1"
     inkscape:label="working layer ==="
     style="display:none"
     sodipodi:insensitive="true"
     transform="translate(12.682838,-10.396761)"><text
       xml:space="preserve"
       style="font-style:normal;font-variant:normal;font-weight:normal;font-stretch:normal;font-size:21.7042408px;line-height:125%;font-family:Basic;-inkscape-font-specification:'Basic, Normal';text-align:start;letter-spacing:0px;word-spacing:0px;writing-mode:lr-tb;text-anchor:start;opacity:0.25;fill:#000000;fill-opacity:1;stroke:none;stroke-width:1px;stroke-linecap:butt;stroke-linejoin:miter;stroke-opacity:1"
       x="50.276913"
       y="250.85269"
       id="text4150"
       sodipodi:linespacing="125%"
       transform="matrix(1.0515363,-0.50509331,0,0.95098951,0,0)"
       inkscape:transform-center-x="-53.956645"
       inkscape:transform-center-y="-33.244365"><tspan
         sodipodi:role="line"
         x="50.276913"
         y="250.85269"
         style="fill:#000000;fill-opacity:1"
         id="tspan4216">ERROR 404</tspan></text>
</g><g
     inkscape:groupmode="layer"
     id="layer2"
     inkscape:label="geometry"
     style="display:inline"
     transform="translate(12.682838,-10.396761)"><g
       id="g4156"
       transform="matrix(1.7465724,0,0,1.7465724,-12.682838,10.396761)"><polygon
         transform="translate(-5.399,-5.187)"
         points="5.42,22.346 153.226,97.541 188.615,80.383 39.233,5.187 "
         id="polygon5"
         style="fill:#11d9a0;fill-opacity:1" /><polygon
         transform="translate(-5.399,-5.187)"
         points="39.091,74.637 70.031,89.764 70.031,188.084 153.226,147.518 153.226,97.541 188.615,80.383 188.615,167.457 39.091,238.277 "
         id="polygon7"
         style="fill:#13f2b3;fill-opacity:1" /><polygon
         transform="translate(-5.399,-5.187)"
         points="70.031,156.457 121.141,131.703 153.226,147.518 70.031,188.084 "
         id="polygon9"
         style="fill:#11d9a0;fill-opacity:1" /><polygon
         transform="translate(-5.399,-5.187)"
         style="fill:#12a68b;fill-opacity:1"
         id="polygon11"
         points="121.141,115.203 39.091,74.637 39.091,238.277 5.399,221.088 5.399,22.346 153.226,97.541 153.226,147.518 121.141,131.703 " /><g
         id="text4153"
         style="font-style:normal;font-variant:normal;font-weight:normal;font-stretch:normal;font-size:21.7042408px;line-height:125%;font-family:Basic;-inkscape-font-specification:'Basic, Normal';text-align:start;letter-spacing:0px;word-spacing:0px;writing-mode:lr-tb;text-anchor:start;opacity:0.25;fill:#000000;fill-opacity:1;stroke:none;stroke-width:1px;stroke-linecap:butt;stroke-linejoin:miter;stroke-opacity:1"
         inkscape:transform-center-y="-33.244365"
         inkscape:transform-center-x="-53.956645"
         transform="matrix(1.0515363,-0.50509331,0,0.95098951,1.8002581,-0.89989276)"><path
           inkscape:connector-curvature="0"
           id="path4160"
           style="fill:#000000;fill-opacity:1"
           d="m 51.951361,236.46091 8.255666,0 q 0,0.0742 0.0106,0.15897 0.0106,0.0742 0.0106,0.16957 0.0106,0.0848 0.0106,0.19076 0,0.18016 -0.07418,0.55108 -0.06359,0.36032 -0.296738,0.83722 -0.879615,-0.0318 -1.822817,-0.0636 -0.805431,-0.0212 -1.780426,-0.0424 -0.974995,-0.0318 -1.907599,-0.0318 l 0,4.34509 q 0.307335,0 0.688855,0 0.392118,-0.0106 0.805431,-0.0212 0.423911,-0.0106 0.847822,-0.0212 0.423911,-0.0106 0.826626,-0.0212 0.932604,-0.0318 1.918197,-0.053 0,0.0848 0.0106,0.18017 0.0106,0.0848 0.0106,0.20135 0.0106,0.10598 0.0106,0.22256 0,0.053 -0.02119,0.21195 -0.0106,0.14837 -0.05299,0.33913 -0.03179,0.19076 -0.08478,0.38152 -0.04239,0.19076 -0.105978,0.31794 -0.985593,0 -1.897001,-0.0106 -0.392118,0 -0.805431,0 -0.413313,0 -0.805431,0 -0.38152,-0.0106 -0.731247,-0.0106 -0.349726,0 -0.61467,0 l 0,4.7478 q 0.932604,0 1.960588,-0.0318 1.038582,-0.0318 1.928795,-0.0636 1.038581,-0.0424 2.04537,-0.0954 0,0.0954 0.0106,0.20136 0.0106,0.0848 0.0106,0.21196 0.0106,0.11657 0.0106,0.23315 0,0.22255 -0.03179,0.58287 -0.03179,0.36033 -0.137771,0.77364 l -8.202677,0 0,-14.39178 z" /><path
           inkscape:connector-curvature="0"
           id="path4162"
           style="fill:#000000;fill-opacity:1"
           d="m 62.761091,236.46091 5.04454,0 q 1.059777,0 1.875806,0.29674 0.816028,0.28614 1.356515,0.82663 0.551084,0.52989 0.826626,1.29293 0.28614,0.75244 0.28614,1.68504 0,0.67826 -0.169564,1.29293 -0.169565,0.60407 -0.519291,1.12337 -0.339129,0.50869 -0.879615,0.9114 -0.529889,0.40272 -1.261135,0.65707 0.402715,0.77363 0.858419,1.56847 0.455704,0.79483 0.911409,1.58966 0.466302,0.79484 0.922006,1.58967 0.455704,0.79483 0.85842,1.55787 l -2.585857,0 -3.147539,-5.94535 -0.148369,0 q -0.307335,0 -0.646464,-0.0212 -0.328531,-0.0318 -0.614671,-0.0636 -0.339129,-0.0424 -0.657062,-0.0954 l 0,6.12551 -2.310314,0 0,-14.39178 z m 2.310314,6.56003 q 0.09538,0.0106 0.307336,0.0318 0.222553,0.0106 0.487497,0.0212 0.275542,0.0106 0.582878,0.0212 0.317933,0 0.604073,0 1.345917,0 2.002979,-0.60407 0.66766,-0.61467 0.66766,-1.88641 0,-1.11276 -0.604073,-1.70624 -0.593476,-0.59347 -1.695644,-0.59347 l -2.352706,0 0,4.71601 z" /><path
           inkscape:connector-curvature="0"
           id="path4164"
           style="fill:#000000;fill-opacity:1"
           d="m 74.842552,236.46091 5.044541,0 q 1.059777,0 1.875806,0.29674 0.816028,0.28614 1.356515,0.82663 0.551084,0.52989 0.826626,1.29293 0.28614,0.75244 0.28614,1.68504 0,0.67826 -0.169564,1.29293 -0.169565,0.60407 -0.519291,1.12337 -0.339129,0.50869 -0.879615,0.9114 -0.529889,0.40272 -1.261136,0.65707 0.402716,0.77363 0.85842,1.56847 0.455704,0.79483 0.911409,1.58966 0.466302,0.79484 0.922006,1.58967 0.455704,0.79483 0.85842,1.55787 l -2.585857,0 -3.147539,-5.94535 -0.148369,0 q -0.307335,0 -0.646464,-0.0212 -0.328531,-0.0318 -0.614671,-0.0636 -0.339129,-0.0424 -0.657062,-0.0954 l 0,6.12551 -2.310315,0 0,-14.39178 z m 2.310315,6.56003 q 0.09538,0.0106 0.307336,0.0318 0.222553,0.0106 0.487497,0.0212 0.275542,0.0106 0.582878,0.0212 0.317933,0 0.604073,0 1.345917,0 2.002979,-0.60407 0.66766,-0.61467 0.66766,-1.88641 0,-1.11276 -0.604073,-1.70624 -0.593476,-0.59347 -1.695644,-0.59347 l -2.352706,0 0,4.71601 z" /><path
           inkscape:connector-curvature="0"
           id="path4166"
           style="fill:#000000;fill-opacity:1"
           d="m 92.12752,251.12823 q -1.589666,0 -2.734225,-0.50869 -1.133962,-0.51929 -1.865209,-1.48369 -0.720648,-0.97499 -1.059777,-2.3527 -0.339129,-1.38831 -0.339129,-3.12635 0,-1.73803 0.349727,-3.12634 0.360324,-1.38831 1.091571,-2.35271 0.741844,-0.96439 1.875806,-1.47309 1.133961,-0.51929 2.681236,-0.51929 1.62146,0 2.744824,0.4875 1.123364,0.4769 1.822817,1.4095 0.710051,0.93261 1.027984,2.28912 0.317933,1.34592 0.317933,3.08396 0,1.74863 -0.339129,3.16873 -0.339128,1.4095 -1.059777,2.41629 -0.720649,0.99619 -1.844013,1.54728 -1.112766,0.54048 -2.670639,0.54048 z m 0,-1.85461 q 1.006789,0 1.674449,-0.42391 0.678257,-0.42391 1.080973,-1.18695 0.413313,-0.77364 0.582877,-1.84401 0.180162,-1.07038 0.180162,-2.3633 0,-1.38831 -0.180162,-2.4057 -0.169564,-1.02798 -0.582877,-1.69564 -0.402716,-0.67826 -1.080973,-1.00679 -0.66766,-0.32853 -1.674449,-0.32853 -1.006788,0 -1.706241,0.38152 -0.688856,0.37092 -1.112766,1.10217 -0.423911,0.72064 -0.614671,1.76982 -0.180163,1.04918 -0.180163,2.3845 0,1.33532 0.180163,2.3845 0.19076,1.04918 0.614671,1.76983 0.42391,0.71005 1.112766,1.09157 0.699453,0.37092 1.706241,0.37092 z" /><path
           inkscape:connector-curvature="0"
           id="path4168"
           style="fill:#000000;fill-opacity:1"
           d="m 100.61634,236.46091 5.04454,0 q 1.05978,0 1.87581,0.29674 0.81602,0.28614 1.35651,0.82663 0.55108,0.52989 0.82663,1.29293 0.28614,0.75244 0.28614,1.68504 0,0.67826 -0.16957,1.29293 -0.16956,0.60407 -0.51929,1.12337 -0.33913,0.50869 -0.87961,0.9114 -0.52989,0.40272 -1.26114,0.65707 0.40272,0.77363 0.85842,1.56847 0.4557,0.79483 0.91141,1.58966 0.4663,0.79484 0.92201,1.58967 0.4557,0.79483 0.85842,1.55787 l -2.58586,0 -3.14754,-5.94535 -0.14837,0 q -0.30733,0 -0.64646,-0.0212 -0.32853,-0.0318 -0.61467,-0.0636 -0.33913,-0.0424 -0.65707,-0.0954 l 0,6.12551 -2.31031,0 0,-14.39178 z m 2.31031,6.56003 q 0.0954,0.0106 0.30734,0.0318 0.22255,0.0106 0.4875,0.0212 0.27554,0.0106 0.58287,0.0212 0.31794,0 0.60408,0 1.34591,0 2.00298,-0.60407 0.66766,-0.61467 0.66766,-1.88641 0,-1.11276 -0.60408,-1.70624 -0.59347,-0.59347 -1.69564,-0.59347 l -2.35271,0 0,4.71601 z" /><path
           inkscape:connector-curvature="0"
           id="path4170"
           style="fill:#000000;fill-opacity:1"
           d="m 118.06027,246.97391 q -0.22255,-0.25435 -0.36032,-0.54049 -0.12717,-0.29674 -0.20136,-0.54049 -0.0848,-0.28614 -0.11657,-0.57228 l 4.97035,-9.58038 q 0.50869,0.11657 0.9538,0.25434 0.38152,0.11658 0.74184,0.28614 0.37093,0.16957 0.54049,0.37092 l 0.0106,0.15897 q -0.63587,1.07038 -1.31412,2.25733 -0.28614,0.50869 -0.62527,1.09157 -0.32853,0.58288 -0.68886,1.20814 -0.36032,0.62527 -0.73125,1.29293 -0.37092,0.65706 -0.73124,1.32472 l -1.04918,1.35652 4.44047,0 0,-2.8826 q 0.37092,-0.27554 0.78423,-0.42391 0.42391,-0.15896 0.78424,-0.24374 0.42391,-0.0848 0.82662,-0.10598 l 0,3.65623 1.74864,0 q 0.0106,0.0742 0.0212,0.15897 0.0106,0.0742 0.0106,0.15896 0.0106,0.0742 0.0106,0.14837 0,0.23315 -0.0636,0.51929 -0.053,0.27554 -0.24375,0.64647 l -1.48369,0 0,3.87878 -2.39509,0 0,-3.87878 -5.83938,0 0,0 z" /><path
           inkscape:connector-curvature="0"
           id="path4172"
           style="fill:#000000;fill-opacity:1"
           d="m 134.88954,251.06465 q -1.36711,0 -2.35271,-0.5087 -0.98559,-0.50869 -1.62146,-1.46249 -0.63586,-0.9644 -0.9432,-2.34211 -0.30733,-1.37771 -0.30733,-3.10514 0,-1.68505 0.31793,-3.05216 0.32853,-1.37771 0.97499,-2.34211 0.65707,-0.975 1.63206,-1.49429 0.98559,-0.52989 2.29972,-0.52989 1.38831,0 2.3633,0.4875 0.9856,0.4769 1.60027,1.39891 0.62526,0.922 0.9114,2.26792 0.28614,1.34592 0.28614,3.07336 0,1.68504 -0.30733,3.08395 -0.30734,1.3989 -0.9432,2.40569 -0.62527,1.00679 -1.60027,1.56847 -0.97499,0.55109 -2.31031,0.55109 z m -0.0106,-1.70624 q 0.72065,0 1.22934,-0.46631 0.5087,-0.4769 0.82663,-1.27173 0.32853,-0.80543 0.4769,-1.87581 0.14837,-1.08097 0.14837,-2.28911 0,-1.30353 -0.14837,-2.33151 -0.14837,-1.02799 -0.4663,-1.73804 -0.31794,-0.71005 -0.82663,-1.08097 -0.50869,-0.38152 -1.22934,-0.38152 -0.74185,0 -1.27173,0.42391 -0.51929,0.42391 -0.84783,1.18695 -0.32853,0.76304 -0.4769,1.81222 -0.14836,1.04918 -0.14836,2.29972 0,1.25053 0.14836,2.29971 0.14837,1.04918 0.4769,1.81222 0.32854,0.75244 0.84783,1.17635 0.51929,0.42392 1.26113,0.42392 z" /><path
           inkscape:connector-curvature="0"
           id="path4174"
           style="fill:#000000;fill-opacity:1"
           d="m 141.92646,246.97391 q -0.22255,-0.25435 -0.36032,-0.54049 -0.12718,-0.29674 -0.20136,-0.54049 -0.0848,-0.28614 -0.11658,-0.57228 l 4.97036,-9.58038 q 0.50869,0.11657 0.9538,0.25434 0.38152,0.11658 0.74184,0.28614 0.37093,0.16957 0.54049,0.37092 l 0.0106,0.15897 q -0.63587,1.07038 -1.31413,2.25733 -0.28614,0.50869 -0.62527,1.09157 -0.32853,0.58288 -0.68885,1.20814 -0.36032,0.62527 -0.73125,1.29293 -0.37092,0.65706 -0.73124,1.32472 l -1.04918,1.35652 4.44046,0 0,-2.8826 q 0.37093,-0.27554 0.78424,-0.42391 0.42391,-0.15896 0.78423,-0.24374 0.42392,-0.0848 0.82663,-0.10598 l 0,3.65623 1.74863,0 q 0.0106,0.0742 0.0212,0.15897 0.0106,0.0742 0.0106,0.15896 0.0106,0.0742 0.0106,0.14837 0,0.23315 -0.0636,0.51929 -0.053,0.27554 -0.24375,0.64647 l -1.48369,0 0,3.87878 -2.3951,0 0,-3.87878 -5.83937,0 0,0 z" /></g></g></g></svg>