<?xml version="1.0" encoding="UTF-8" standalone="no"?>
<!-- Created with Inkscape (http://www.inkscape.org/) -->

<svg
   xmlns:dc="http://purl.org/dc/elements/1.1/"
   xmlns:cc="http://creativecommons.org/ns#"
   xmlns:rdf="http://www.w3.org/1999/02/22-rdf-syntax-ns#"
   xmlns:svg="http://www.w3.org/2000/svg"
   xmlns="http://www.w3.org/2000/svg"
   xmlns:sodipodi="http://sodipodi.sourceforge.net/DTD/sodipodi-0.dtd"
   xmlns:inkscape="http://www.inkscape.org/namespaces/inkscape"
   width="64"
   height="64"
   viewBox="0 0 64.000001 64.000001"
   id="svg5614"
   version="1.1"
   inkscape:version="0.91 r13725"
   sodipodi:docname="network-of-things.svg"
   inkscape:export-filename="C:\Users\vanner\Público\Synced\development\z\open-innovation-lab\images\themes-icons\network-of-things.png"
   inkscape:export-xdpi="90"
   inkscape:export-ydpi="90">
  <defs
     id="defs5616" />
  <sodipodi:namedview
     id="base"
     pagecolor="#ffffff"
     bordercolor="#666666"
     borderopacity="1.0"
     inkscape:pageopacity="0.0"
     inkscape:pageshadow="2"
     inkscape:zoom="5.9239621"
     inkscape:cx="-17.17311"
     inkscape:cy="27.525424"
     inkscape:document-units="px"
     inkscape:current-layer="layer1"
     showgrid="false"
     units="px"
     inkscape:window-width="1600"
     inkscape:window-height="847"
     inkscape:window-x="1272"
     inkscape:window-y="62"
     inkscape:window-maximized="1" />
  <metadata
     id="metadata5619">
    <rdf:RDF>
      <cc:Work
         rdf:about="">
        <dc:format>image/svg+xml</dc:format>
        <dc:type
           rdf:resource="http://purl.org/dc/dcmitype/StillImage" />
        <dc:title />
      </cc:Work>
    </rdf:RDF>
  </metadata>
  <g
     inkscape:label="Capa 1"
     inkscape:groupmode="layer"
     id="layer1"
     transform="translate(0,-988.36216)">
    <g
       id="Layer_2"
       transform="translate(-26.971611,1196.1637)" />
    <g
       id="g4237"
       style="fill:#11d9a0;fill-opacity:1"
       transform="translate(24.779493,965.28164)" />
    <g
       style="display:none;fill:#11d9a0;fill-opacity:1"
       id="g4239"
       transform="translate(24.779493,965.28164)" />
    <g
       transform="translate(19.318331,1082.2453)"
       id="g4259"
       style="fill:none;stroke:#024059;stroke-opacity:1" />
    <g
       id="g4225"
       style="fill:none;stroke:#024059;stroke-opacity:1"
       transform="translate(24.779493,945.28164)" />
    <g
       id="g4227"
       style="display:none;fill:none;stroke:#024059;stroke-opacity:1"
       transform="translate(24.779493,945.28164)" />
    <g
       id="g4273"
       style="fill:none;stroke:#024059;stroke-opacity:1"
       transform="translate(18.593389,1157.2169)" />
    <g
       id="g4275"
       style="display:none;fill:none;stroke:#024059;stroke-opacity:1"
       transform="translate(18.593389,1157.2169)" />
    <path
       d="m 52.025936,1027.1713 c -1.949659,0 -3.757961,0.6027 -5.256878,1.6242 l -5.342226,-5.3422 c 0.792132,-1.2402 1.264211,-2.7018 1.264211,-4.2834 0,-1.1468 -0.250708,-2.2297 -0.682781,-3.2165 l 8.545428,-6.2651 c 1.138857,0.9122 2.565762,1.4803 4.139359,1.4803 3.683282,0 6.66778,-2.9845 6.66778,-6.6678 0,-3.6832 -2.984498,-6.66774 -6.66778,-6.66774 -3.683283,0 -6.667781,2.98454 -6.667781,6.66774 0,0.8482 0.173362,1.6536 0.464077,2.3977 l -8.553429,6.2731 c -1.408235,-1.2322 -3.229873,-2.003 -5.24621,-2.003 -0.181363,0 -0.352059,0.043 -0.530755,0.053 l -2.661778,-9.0575 c 1.906985,-1.1708 3.192533,-3.25916 3.192533,-5.6649 0,-3.68328 -2.984498,-6.66778 -6.66778,-6.66778 -3.683283,0 -6.667781,2.9845 -6.667781,6.66778 0,3.6833 2.984498,6.6678 6.667781,6.6678 0.05067,0 0.09868,0 0.149358,-0.027 l 2.661778,9.0468 c -1.378897,0.7655 -2.496417,1.9123 -3.221872,3.3126 l -11.593937,-3.0512 c -0.024,-3.6619 -2.995167,-6.6251 -6.6651135,-6.6251 -3.6832821,0 -6.6677808,2.9845 -6.6677808,6.6678 0,3.6833 2.9844987,6.6678 6.6677808,6.6678 2.4724135,0 4.6061025,-1.3603 5.7582955,-3.3606 l 11.60994,3.0565 c -0.0053,0.104 -0.03201,0.2 -0.03201,0.3041 0,1.5816 0.472079,3.0431 1.264212,4.2833 l -8.398737,8.3988 c -1.752293,-1.2536 -3.883315,-2.0137 -6.201036,-2.0137 -5.8916512,0 -10.6684493,4.7768 -10.6684493,10.6685 0,5.8916 4.7767981,10.6684 10.6684493,10.6684 5.891651,0 10.668449,-4.7768 10.668449,-10.6684 0,-2.3178 -0.760127,-4.4488 -2.016337,-6.1984 l 8.398737,-8.3987 c 1.242874,0.7894 2.707119,1.2615 4.286049,1.2615 1.578931,0 3.043175,-0.4721 4.283383,-1.2642 l 5.342226,5.3422 c -1.021504,1.4989 -1.624272,3.3072 -1.624272,5.2569 0,5.1555 4.179365,9.3349 9.334893,9.3349 5.155528,0 9.334893,-4.1794 9.334893,-9.3349 0,-5.1555 -4.179365,-9.3349 -9.334893,-9.3349 z"
       id="path4144"
       inkscape:connector-curvature="0"
       style="fill:#ff0000;fill-opacity:0;stroke:none;stroke-opacity:1" />
    <path
       style="fill:none;stroke:#025e73;stroke-width:2.66711235;stroke-opacity:1"
       inkscape:connector-curvature="0"
       id="linea"
       d="m 52.025936,1027.1713 c -1.949659,0 -3.757961,0.6027 -5.256878,1.6242 l -5.342226,-5.3422 c 0.792132,-1.2402 1.264211,-2.7018 1.264211,-4.2834 0,-1.1468 -0.250708,-2.2297 -0.682781,-3.2165 l 8.545428,-6.2651 c 1.138857,0.9122 2.565762,1.4803 4.139359,1.4803 3.683282,0 6.66778,-2.9845 6.66778,-6.6678 0,-3.6832 -2.984498,-6.6677 -6.66778,-6.6677 -3.683283,0 -6.667781,2.9845 -6.667781,6.6677 0,0.8482 0.173362,1.6536 0.464077,2.3977 l -8.553429,6.2731 c -1.408235,-1.2322 -3.229873,-2.003 -5.24621,-2.003 -0.181363,0 -0.352059,0.043 -0.530755,0.053 l -2.661778,-9.0575 c 1.906985,-1.1708 3.192533,-3.2592 3.192533,-5.6649 0,-3.6833 -2.984498,-6.6678 -6.66778,-6.6678 -3.683283,0 -6.667781,2.9845 -6.667781,6.6678 0,3.6833 2.984498,6.6678 6.667781,6.6678 0.05067,0 0.09868,0 0.149358,-0.027 l 2.661778,9.0468 c -1.378897,0.7655 -2.496417,1.9123 -3.221872,3.3126 l -11.593937,-3.0512 c -0.024,-3.6619 -2.995167,-6.6251 -6.6651135,-6.6251 -3.6832821,0 -6.6677808,2.9845 -6.6677808,6.6678 0,3.6833 2.9844987,6.6678 6.6677808,6.6678 2.4724135,0 4.6061025,-1.3603 5.7582955,-3.3606 l 11.60994,3.0565 c -0.0053,0.104 -0.03201,0.2 -0.03201,0.3041 0,1.5816 0.472079,3.0431 1.264212,4.2833 l -8.398737,8.3988 c -1.752293,-1.2536 -3.883315,-2.0137 -6.201036,-2.0137 -5.8916512,0 -10.6684493,4.7768 -10.6684493,10.6685 0,5.8916 4.7767981,10.6684 10.6684493,10.6684 5.891651,0 10.668449,-4.7768 10.668449,-10.6684 0,-2.3178 -0.760127,-4.4488 -2.016337,-6.1984 l 8.398737,-8.3987 c 1.242874,0.7894 2.707119,1.2615 4.286049,1.2615 1.578931,0 3.043175,-0.4721 4.283383,-1.2642 l 5.342226,5.3422 c -1.021504,1.4989 -1.624272,3.3072 -1.624272,5.2569 0,5.1555 4.179365,9.3349 9.334893,9.3349 5.155528,0 9.334893,-4.1794 9.334893,-9.3349 0,-5.1555 -4.179365,-9.3349 -9.334893,-9.3349 z" />
    <circle
       r="10.11872"
       cy="1040.4077"
       cx="13.270186"
       id="path4440"
       style="display:inline;opacity:1;fill:#12a68b;fill-opacity:1;fill-rule:nonzero;stroke:none;stroke-width:1.5;stroke-linecap:round;stroke-linejoin:round;stroke-miterlimit:4;stroke-dasharray:none;stroke-opacity:1" />
    <circle
       style="display:inline;opacity:1;fill:#13f2b3;fill-opacity:1;fill-rule:nonzero;stroke:none;stroke-width:1.5;stroke-linecap:round;stroke-linejoin:round;stroke-miterlimit:4;stroke-dasharray:none;stroke-opacity:1"
       id="circle4443"
       cx="9.3756456"
       cy="1012.4042"
       r="5.4823704" />
    <circle
       r="8.4496336"
       cy="1036.3276"
       cx="52.030048"
       id="circle4445"
       style="display:inline;opacity:1;fill:#11d9a0;fill-opacity:1;fill-rule:nonzero;stroke:none;stroke-width:1.5;stroke-linecap:round;stroke-linejoin:round;stroke-miterlimit:4;stroke-dasharray:none;stroke-opacity:1" />
    <circle
       style="display:inline;opacity:1;fill:#11d9a0;fill-opacity:1;fill-rule:nonzero;stroke:none;stroke-width:1.5;stroke-linecap:round;stroke-linejoin:round;stroke-miterlimit:4;stroke-dasharray:none;stroke-opacity:1"
       id="circle4447"
       cx="54.626411"
       cy="1004.2441"
       r="5.8532782" />
    <circle
       r="5.8532782"
       cy="996.26965"
       cx="27.921041"
       id="circle4449"
       style="display:inline;opacity:1;fill:#12a68b;fill-opacity:1;fill-rule:nonzero;stroke:none;stroke-width:1.5;stroke-linecap:round;stroke-linejoin:round;stroke-miterlimit:4;stroke-dasharray:none;stroke-opacity:1" />
    <rect
       style="opacity:1;fill:#13f2b3;fill-opacity:1;fill-rule:nonzero;stroke:none;stroke-width:1.5;stroke-linecap:round;stroke-linejoin:round;stroke-miterlimit:4;stroke-dasharray:none;stroke-opacity:1"
       id="rect4163"
       width="7.2947555"
       height="5.9203811"
       x="-0.24731013"
       y="980.69794" />
    <rect
       y="980.69794"
       x="7.5760503"
       height="5.9203811"
       width="7.2947555"
       id="rect4165"
       style="opacity:1;fill:#11d9a0;fill-opacity:1;fill-rule:nonzero;stroke:none;stroke-width:1.5;stroke-linecap:round;stroke-linejoin:round;stroke-miterlimit:4;stroke-dasharray:none;stroke-opacity:1" />
    <rect
       style="opacity:1;fill:#12a68b;fill-opacity:1;fill-rule:nonzero;stroke:none;stroke-width:1.5;stroke-linecap:round;stroke-linejoin:round;stroke-miterlimit:4;stroke-dasharray:none;stroke-opacity:1"
       id="rect4167"
       width="7.2947555"
       height="5.9203811"
       x="15.399412"
       y="980.69794" />
    <rect
       y="980.69794"
       x="23.082249"
       height="5.9203811"
       width="7.2947555"
       id="rect4169"
       style="opacity:1;fill:#025e73;fill-opacity:1;fill-rule:nonzero;stroke:none;stroke-width:1.5;stroke-linecap:round;stroke-linejoin:round;stroke-miterlimit:4;stroke-dasharray:none;stroke-opacity:1" />
    <rect
       style="opacity:1;fill:#024059;fill-opacity:1;fill-rule:nonzero;stroke:none;stroke-width:1.5;stroke-linecap:round;stroke-linejoin:round;stroke-miterlimit:4;stroke-dasharray:none;stroke-opacity:1"
       id="rect4171"
       width="7.2947555"
       height="5.9203811"
       x="30.765085"
       y="980.69794" />
  </g>
</svg>
