<?xml version="1.0" encoding="UTF-8" standalone="no"?>
<!-- Generator: Adobe Illustrator 17.1.0, SVG Export Plug-In . SVG Version: 6.00 Build 0)  -->

<svg
   xmlns:dc="http://purl.org/dc/elements/1.1/"
   xmlns:cc="http://creativecommons.org/ns#"
   xmlns:rdf="http://www.w3.org/1999/02/22-rdf-syntax-ns#"
   xmlns:svg="http://www.w3.org/2000/svg"
   xmlns="http://www.w3.org/2000/svg"
   xmlns:sodipodi="http://sodipodi.sourceforge.net/DTD/sodipodi-0.dtd"
   xmlns:inkscape="http://www.inkscape.org/namespaces/inkscape"
   version="1.1"
   x="0px"
   y="0px"
   width="64"
   height="64"
   viewBox="0 0 64 64"
   xml:space="preserve"
   id="svg2"
   inkscape:version="0.91 r"
   sodipodi:docname="product-design.svg"
   inkscape:export-filename="C:\Users\vanner\Público\Synced\development\z\open-innovation-lab\images\themes-icons\product-design.png"
   inkscape:export-xdpi="90"
   inkscape:export-ydpi="90"><metadata
     id="metadata13"><rdf:RDF><cc:Work
         rdf:about=""><dc:format>image/svg+xml</dc:format><dc:type
           rdf:resource="http://purl.org/dc/dcmitype/StillImage" /><dc:title /></cc:Work></rdf:RDF></metadata><defs
     id="defs11" /><sodipodi:namedview
     pagecolor="#ffffff"
     bordercolor="#666666"
     borderopacity="1"
     objecttolerance="10"
     gridtolerance="10"
     guidetolerance="10"
     inkscape:pageopacity="0"
     inkscape:pageshadow="2"
     inkscape:window-width="1600"
     inkscape:window-height="876"
     id="namedview9"
     showgrid="false"
     inkscape:zoom="17.012924"
     inkscape:cx="53.845276"
     inkscape:cy="46.989189"
     inkscape:window-x="0"
     inkscape:window-y="24"
     inkscape:window-maximized="1"
     inkscape:current-layer="svg2" /><g
     id="Layer_2"
     transform="translate(0,16)" /><g
     id="Layer_2-8"
     transform="translate(-89.646112,128.25779)" /><g
     id="g4237"
     style="fill:#11d9a0;fill-opacity:1"
     transform="translate(-37.895008,-102.62427)" /><g
     style="display:none;fill:#11d9a0;fill-opacity:1"
     id="g4239"
     transform="translate(-37.895008,-102.62427)" /><g
     transform="translate(-43.35617,14.33934)"
     id="g4259"
     style="fill:none;stroke:#024059;stroke-opacity:1" /><g
     id="g4225"
     style="fill:none;stroke:#024059;stroke-opacity:1"
     transform="translate(-37.895008,-122.62427)" /><g
     id="g4227"
     style="display:none;fill:none;stroke:#024059;stroke-opacity:1"
     transform="translate(-37.895008,-122.62427)" /><g
     id="g4273"
     style="fill:none;stroke:#024059;stroke-opacity:1"
     transform="translate(-44.081112,89.31096)" /><g
     id="g4275"
     style="display:none;fill:none;stroke:#024059;stroke-opacity:1"
     transform="translate(-44.081112,89.31096)" /><path
     style="fill:#13f2b3;fill-opacity:1;stroke:none"
     inkscape:connector-curvature="0"
     d="m 56.002163,10.060604 5.159799,-5.1597999 -45.148246,0 -5.1598,5.1597999 z m -47.7281465,2.5799 -5.1597996,5.159799 45.1482461,0 5.1598,-5.159799 z"
     id="path4391"
     sodipodi:nodetypes="cccccccccc" /><path
     sodipodi:nodetypes="cccccccccccccccccccccccc"
     id="path4171"
     d="m 0.53431708,20.380203 46.43819592,0 0,38.698497 -46.43819592,0 z m 23.21909792,28.378898 -15.4793985,0 0,2.5799 15.4793985,0 z m -16.4468609,-7.7397 3.5473619,0 0,5.1598 2.5799,0 0,-5.1598 5.1598,0 0,5.1598 2.579899,0 0,-5.1598 3.547363,0 -4.837312,-6.447169 -3.86985,5.157219 -3.86985,-5.157219 z"
     inkscape:connector-curvature="0"
     style="fill:#11d9a0;fill-opacity:1;stroke:none" /><path
     sodipodi:nodetypes="cccccccccc"
     id="path4150"
     d="m 62.451912,7.4807039 0,38.6984971 -5.159799,5.1598 0,-38.698497 z m -12.899499,12.8994991 0,38.698497 5.1598,-5.1598 0,-38.698497 z"
     inkscape:connector-curvature="0"
     style="fill:#12a68b;fill-opacity:1;stroke:none" /><path
     sodipodi:nodetypes="ccccccccccccccccccccccccc"
     style="fill:none;stroke:#024059;stroke-width:2.57989979;stroke-opacity:1"
     id="linea"
     d="m 62.71005,7.2655269 0,36.9508811 -5.41794,5.317746 0,-36.85138 z m -13.15764,13.1569461 0,36.851381 5.1598,-5.1598 0,-36.85138 z m 5.833657,-10.361869 5.1598,-5.158716 -44.532151,0 -5.1598,5.158716 z M 8.274017,12.640504 2.713983,18.2 l 44.53215,0 5.560034,-5.559496 z M 0.908,20.78 l 46.06451,0 0,38.2987 -46.06451,0 z"
     inkscape:connector-curvature="0" /><path
     inkscape:connector-curvature="0"
     d="m 23.753415,48.759101 -15.4793985,0 0,2.5799 15.4793985,0 z m -16.4468609,-7.7397 3.5473619,0 0,5.1598 2.5799,0 0,-5.1598 5.1598,0 0,5.1598 2.579899,0 0,-5.1598 3.547363,0 -4.837312,-6.447169 -3.86985,5.157219 -3.86985,-5.157219 z"
     id="path4257"
     style="display:inline;fill:#ffffff;fill-opacity:1;stroke:none;stroke-opacity:1"
     sodipodi:nodetypes="ccccccccccccccccccc" /><rect
     style="opacity:1;fill:#13f2b3;fill-opacity:1;fill-rule:nonzero;stroke:none;stroke-width:1.5;stroke-linecap:round;stroke-linejoin:round;stroke-miterlimit:4;stroke-dasharray:none;stroke-opacity:1"
     id="rect4163"
     width="7.2947555"
     height="5.9203811"
     x="-0.23832156"
     y="-7.502563" /><rect
     y="-7.502563"
     x="7.5850391"
     height="5.9203811"
     width="7.2947555"
     id="rect4165"
     style="opacity:1;fill:#11d9a0;fill-opacity:1;fill-rule:nonzero;stroke:none;stroke-width:1.5;stroke-linecap:round;stroke-linejoin:round;stroke-miterlimit:4;stroke-dasharray:none;stroke-opacity:1" /><rect
     style="opacity:1;fill:#12a68b;fill-opacity:1;fill-rule:nonzero;stroke:none;stroke-width:1.5;stroke-linecap:round;stroke-linejoin:round;stroke-miterlimit:4;stroke-dasharray:none;stroke-opacity:1"
     id="rect4167"
     width="7.2947555"
     height="5.9203811"
     x="15.408401"
     y="-7.502563" /><rect
     y="-7.502563"
     x="23.091238"
     height="5.9203811"
     width="7.2947555"
     id="rect4169"
     style="opacity:1;fill:#025e73;fill-opacity:1;fill-rule:nonzero;stroke:none;stroke-width:1.5;stroke-linecap:round;stroke-linejoin:round;stroke-miterlimit:4;stroke-dasharray:none;stroke-opacity:1" /><rect
     style="opacity:1;fill:#024059;fill-opacity:1;fill-rule:nonzero;stroke:none;stroke-width:1.5;stroke-linecap:round;stroke-linejoin:round;stroke-miterlimit:4;stroke-dasharray:none;stroke-opacity:1"
     id="rect4171"
     width="7.2947555"
     height="5.9203811"
     x="30.774075"
     y="-7.502563" /></svg>