<?xml version="1.0" encoding="UTF-8" standalone="no"?>
<!-- Generator: Adobe Illustrator 17.1.0, SVG Export Plug-In . SVG Version: 6.00 Build 0)  -->

<svg
   xmlns:dc="http://purl.org/dc/elements/1.1/"
   xmlns:cc="http://creativecommons.org/ns#"
   xmlns:rdf="http://www.w3.org/1999/02/22-rdf-syntax-ns#"
   xmlns:svg="http://www.w3.org/2000/svg"
   xmlns="http://www.w3.org/2000/svg"
   xmlns:sodipodi="http://sodipodi.sourceforge.net/DTD/sodipodi-0.dtd"
   xmlns:inkscape="http://www.inkscape.org/namespaces/inkscape"
   version="1.1"
   x="0px"
   y="0px"
   width="64"
   height="64"
   viewBox="0 0 64 64"
   xml:space="preserve"
   id="svg2"
   inkscape:version="0.91 r13725"
   sodipodi:docname="web-design.svg"
   inkscape:export-filename="C:\Users\vanner\Público\Synced\development\z\open-innovation-lab\images\themes-icons\web-design.png"
   inkscape:export-xdpi="90"
   inkscape:export-ydpi="90"><metadata
     id="metadata18"><rdf:RDF><cc:Work
         rdf:about=""><dc:format>image/svg+xml</dc:format><dc:type
           rdf:resource="http://purl.org/dc/dcmitype/StillImage" /><dc:title /></cc:Work></rdf:RDF></metadata><defs
     id="defs16"><pattern
       y="0"
       x="0"
       height="6"
       width="6"
       patternUnits="userSpaceOnUse"
       id="EMFhbasepattern" /></defs><sodipodi:namedview
     pagecolor="#ffffff"
     bordercolor="#666666"
     borderopacity="1"
     objecttolerance="10"
     gridtolerance="10"
     guidetolerance="10"
     inkscape:pageopacity="0"
     inkscape:pageshadow="2"
     inkscape:window-width="1600"
     inkscape:window-height="847"
     id="namedview14"
     showgrid="false"
     inkscape:zoom="7.8859006"
     inkscape:cx="-27.34012"
     inkscape:cy="32.644068"
     inkscape:window-x="1272"
     inkscape:window-y="62"
     inkscape:window-maximized="1"
     inkscape:current-layer="svg2" /><g
     id="Layer_2"
     transform="translate(0,16)" /><g
     id="nyt_x5F_exporter_x5F_info"
     style="display:none"
     transform="translate(0,16)" /><g
     id="Layer_2-2"
     transform="translate(-73.171536,131.71542)" /><g
     id="g4237"
     style="fill:#11d9a0;fill-opacity:1"
     transform="translate(-21.420432,-99.16664)" /><g
     style="display:none;fill:#11d9a0;fill-opacity:1"
     id="g4239"
     transform="translate(-21.420432,-99.16664)" /><g
     transform="translate(-26.881594,17.79697)"
     id="g4259"
     style="fill:none;stroke:#024059;stroke-opacity:1" /><g
     id="g4225"
     style="fill:none;stroke:#024059;stroke-opacity:1"
     transform="translate(-21.420432,-119.16664)" /><g
     id="g4227"
     style="display:none;fill:none;stroke:#024059;stroke-opacity:1"
     transform="translate(-21.420432,-119.16664)" /><g
     id="g4273"
     style="fill:none;stroke:#024059;stroke-opacity:1"
     transform="translate(-27.606536,92.76859)" /><g
     id="g4275"
     style="display:none;fill:none;stroke:#024059;stroke-opacity:1"
     transform="translate(-27.606536,92.76859)" /><path
     id="relleno1"
     d="m 60.689654,5.517252 -57.3793116,0 c -1.2137932,0 -2.2068966,0.9931035 -2.2068966,2.2068966 l 0,37.5172424 c 0,1.213793 0.9931034,2.206896 2.2068966,2.206896 l 24.2758626,0 c 0,0.414897 0,1.103449 0,2.206897 0,4.413793 -4.310069,4.413793 -4.310069,4.413793 l -8.147862,0 c -0.430345,0 -0.783449,0.353104 -0.783449,0.781242 l 0,3.632551 35.310346,0 0,-3.632551 c 0,-0.428138 -0.353103,-0.781242 -0.783448,-0.781242 l -8.044138,0 c 0,0 -4.413794,0 -4.413794,-4.413793 0,-1.103448 0,-1.792 0,-2.206897 l 24.275863,0 c 1.213793,0 2.206897,-0.993103 2.206897,-2.206896 l 0,-37.5172424 c 0,-1.2137931 -0.993104,-2.2068966 -2.206897,-2.2068966 z m -2.206897,39.724139 -2.206896,0 0,-2.206897 2.206896,0 0,2.206897 z m 0,-4.413793 -52.965518,0 0,-30.8965528 52.965518,0 0,30.8965528 z"
     inkscape:connector-curvature="0"
     style="fill:#12a68b;fill-opacity:1" /><rect
     style="fill:none;stroke:#024059;stroke-width:2.20689654;stroke-opacity:1"
     id="rect4269"
     height="30.896553"
     width="52.965519"
     y="9.9310036"
     x="5.5172396" /><path
     inkscape:connector-curvature="0"
     d="m 60.689654,5.517252 -57.3793116,0 c -1.2137932,0 -2.2068966,0.993103 -2.2068966,2.206897 l 0,37.517242 c 0,1.213793 0.9931034,2.206896 2.2068966,2.206896 l 24.2758626,0 c 0,0.414897 0,1.103449 0,2.206897 0,4.413793 -4.310069,4.413793 -4.310069,4.413793 l -8.147862,0 c -0.430345,0 -0.783449,0.353104 -0.783449,0.781242 l 0,3.632551 35.310346,0 0,-3.632551 c 0,-0.428138 -0.353103,-0.781242 -0.783448,-0.781242 l -8.044138,0 c 0,0 -4.413794,0 -4.413794,-4.413793 0,-1.103448 0,-1.792 0,-2.206897 l 24.275863,0 c 1.213793,0 2.206897,-0.993103 2.206897,-2.206896 l 0,-37.517242 c 0,-1.213794 -0.993104,-2.206897 -2.206897,-2.206897 z m -2.206897,39.724139 -2.206896,0 0,-2.206897 2.206896,0 0,2.206897 z m 0,-4.413793 -52.965518,0 0,-30.896553 52.965518,0 0,30.896553 z"
     id="linea"
     style="fill:none;stroke:#025e73;stroke-width:2.20689654;stroke-opacity:1" /><rect
     y="13.115136"
     x="8.6923809"
     height="5.4316092"
     width="46.454365"
     id="rect4337"
     style="opacity:1;fill:#13f2b3;fill-opacity:1;fill-rule:nonzero;stroke:none;stroke-width:1.5;stroke-linecap:round;stroke-linejoin:round;stroke-miterlimit:4;stroke-dasharray:none;stroke-opacity:1" /><rect
     y="20.833752"
     x="8.6923809"
     height="16.437696"
     width="34.161823"
     id="rect4343"
     style="opacity:1;fill:#11d9a0;fill-opacity:1;fill-rule:nonzero;stroke:none;stroke-width:1.5;stroke-linecap:round;stroke-linejoin:round;stroke-miterlimit:4;stroke-dasharray:none;stroke-opacity:1" /><rect
     y="20.833752"
     x="45.141178"
     height="16.437696"
     width="10.005555"
     id="rect4349"
     style="opacity:1;fill:#11d9a0;fill-opacity:1;fill-rule:nonzero;stroke:none;stroke-width:1.5;stroke-linecap:round;stroke-linejoin:round;stroke-miterlimit:4;stroke-dasharray:none;stroke-opacity:1" /><path
     inkscape:connector-curvature="0"
     id="path4154"
     d="m 0.08348473,-7.7564988 7.96981397,0 0,6.4908821 -7.96981397,0 z"
     style="fill:#13f2b3;fill-opacity:1;fill-rule:nonzero;stroke:none" /><path
     inkscape:connector-curvature="0"
     id="path4156"
     d="m 8.6284336,-7.7564988 8.0519904,0 0,6.4908821 -8.0519904,0 z"
     style="fill:#11d9a0;fill-opacity:1;fill-rule:nonzero;stroke:none" /><path
     inkscape:connector-curvature="0"
     id="path4158"
     d="m 17.255571,-7.7564988 7.96976,0 0,6.4908821 -7.96976,0 z"
     style="fill:#12a68b;fill-opacity:1;fill-rule:nonzero;stroke:none" /><path
     inkscape:connector-curvature="0"
     id="path4160"
     d="m 25.636151,-7.7564988 7.969869,0 0,6.4908821 -7.969869,0 z"
     style="fill:#025e73;fill-opacity:1;fill-rule:nonzero;stroke:none" /><path
     inkscape:connector-curvature="0"
     id="path4162"
     d="m 34.01684,-7.7564988 8.051926,0 0,6.4908821 -8.051926,0 z"
     style="fill:#024059;fill-opacity:1;fill-rule:nonzero;stroke:none" /></svg>